<mxfile host="app.diagrams.net" modified="2024-05-06T15:12:58.172Z" agent="Mozilla/5.0 (Macintosh; Intel Mac OS X 10_15_7) AppleWebKit/537.36 (KHTML, like Gecko) Chrome/121.0.0.0 Safari/537.36" etag="BEmAFqiqOKZHey77OD5Q" version="24.3.1" type="github" pages="4">
  <diagram name="Use-Case" id="OriCZsVw3bK8YGZWJKEv">
    <mxGraphModel dx="1010" dy="558" grid="1" gridSize="10" guides="1" tooltips="1" connect="1" arrows="1" fold="1" page="1" pageScale="1" pageWidth="850" pageHeight="1100" math="0" shadow="0">
      <root>
        <mxCell id="0" />
        <mxCell id="1" parent="0" />
        <mxCell id="WNUJylYaXTF2REMwHw2I-1" value="" style="swimlane;startSize=0;" vertex="1" parent="1">
          <mxGeometry x="165" y="120" width="520" height="730" as="geometry" />
        </mxCell>
        <mxCell id="WNUJylYaXTF2REMwHw2I-4" value="Mark Task&lt;div&gt;Complete&lt;/div&gt;" style="ellipse;whiteSpace=wrap;html=1;" vertex="1" parent="WNUJylYaXTF2REMwHw2I-1">
          <mxGeometry x="60" y="80" width="120" height="80" as="geometry" />
        </mxCell>
        <mxCell id="WNUJylYaXTF2REMwHw2I-7" value="Add Task" style="ellipse;whiteSpace=wrap;html=1;" vertex="1" parent="WNUJylYaXTF2REMwHw2I-1">
          <mxGeometry x="60" y="460" width="120" height="80" as="geometry" />
        </mxCell>
        <mxCell id="WNUJylYaXTF2REMwHw2I-8" value="View Task&lt;div&gt;List&lt;/div&gt;" style="ellipse;whiteSpace=wrap;html=1;" vertex="1" parent="WNUJylYaXTF2REMwHw2I-1">
          <mxGeometry x="60" y="610" width="120" height="80" as="geometry" />
        </mxCell>
        <mxCell id="WNUJylYaXTF2REMwHw2I-9" value="Log In" style="ellipse;whiteSpace=wrap;html=1;" vertex="1" parent="WNUJylYaXTF2REMwHw2I-1">
          <mxGeometry x="345" y="280" width="120" height="80" as="geometry" />
        </mxCell>
        <mxCell id="WNUJylYaXTF2REMwHw2I-10" value="Add Task Title" style="ellipse;whiteSpace=wrap;html=1;" vertex="1" parent="WNUJylYaXTF2REMwHw2I-1">
          <mxGeometry x="325" y="500" width="120" height="80" as="geometry" />
        </mxCell>
        <mxCell id="WNUJylYaXTF2REMwHw2I-11" value="Add Reminder&lt;div&gt;Time&lt;/div&gt;" style="ellipse;whiteSpace=wrap;html=1;" vertex="1" parent="WNUJylYaXTF2REMwHw2I-1">
          <mxGeometry x="325" y="610" width="120" height="80" as="geometry" />
        </mxCell>
        <mxCell id="WNUJylYaXTF2REMwHw2I-18" value="" style="endArrow=classic;html=1;rounded=0;exitX=1;exitY=0.5;exitDx=0;exitDy=0;entryX=0.049;entryY=0.716;entryDx=0;entryDy=0;entryPerimeter=0;" edge="1" parent="WNUJylYaXTF2REMwHw2I-1" source="WNUJylYaXTF2REMwHw2I-7" target="WNUJylYaXTF2REMwHw2I-9">
          <mxGeometry width="50" height="50" relative="1" as="geometry">
            <mxPoint x="185" y="265" as="sourcePoint" />
            <mxPoint x="305" y="80" as="targetPoint" />
          </mxGeometry>
        </mxCell>
        <mxCell id="WNUJylYaXTF2REMwHw2I-20" value="&amp;lt;&amp;lt;include&amp;gt;&amp;gt;" style="edgeLabel;html=1;align=center;verticalAlign=middle;resizable=0;points=[];" vertex="1" connectable="0" parent="WNUJylYaXTF2REMwHw2I-18">
          <mxGeometry x="-0.0342" y="2" relative="1" as="geometry">
            <mxPoint as="offset" />
          </mxGeometry>
        </mxCell>
        <mxCell id="WNUJylYaXTF2REMwHw2I-23" value="" style="endArrow=classic;html=1;rounded=0;entryX=0.353;entryY=0.025;entryDx=0;entryDy=0;exitX=1;exitY=0.5;exitDx=0;exitDy=0;entryPerimeter=0;" edge="1" parent="WNUJylYaXTF2REMwHw2I-1" source="WNUJylYaXTF2REMwHw2I-4" target="WNUJylYaXTF2REMwHw2I-9">
          <mxGeometry width="50" height="50" relative="1" as="geometry">
            <mxPoint x="170" y="160" as="sourcePoint" />
            <mxPoint x="310" y="120" as="targetPoint" />
          </mxGeometry>
        </mxCell>
        <mxCell id="WNUJylYaXTF2REMwHw2I-24" value="&amp;lt;&amp;lt;include&amp;gt;&amp;gt;" style="edgeLabel;html=1;align=center;verticalAlign=middle;resizable=0;points=[];" vertex="1" connectable="0" parent="WNUJylYaXTF2REMwHw2I-23">
          <mxGeometry x="-0.0342" y="2" relative="1" as="geometry">
            <mxPoint as="offset" />
          </mxGeometry>
        </mxCell>
        <mxCell id="WNUJylYaXTF2REMwHw2I-26" value="" style="endArrow=classic;html=1;rounded=0;entryX=0;entryY=0.5;entryDx=0;entryDy=0;exitX=1;exitY=0.5;exitDx=0;exitDy=0;" edge="1" parent="WNUJylYaXTF2REMwHw2I-1" source="WNUJylYaXTF2REMwHw2I-7" target="WNUJylYaXTF2REMwHw2I-11">
          <mxGeometry width="50" height="50" relative="1" as="geometry">
            <mxPoint x="185" y="360" as="sourcePoint" />
            <mxPoint x="335" y="490" as="targetPoint" />
          </mxGeometry>
        </mxCell>
        <mxCell id="WNUJylYaXTF2REMwHw2I-27" value="" style="endArrow=classic;html=1;rounded=0;entryX=0;entryY=0.5;entryDx=0;entryDy=0;exitX=1;exitY=0.5;exitDx=0;exitDy=0;" edge="1" parent="WNUJylYaXTF2REMwHw2I-1" source="WNUJylYaXTF2REMwHw2I-7" target="WNUJylYaXTF2REMwHw2I-10">
          <mxGeometry width="50" height="50" relative="1" as="geometry">
            <mxPoint x="245" y="270" as="sourcePoint" />
            <mxPoint x="295" y="365" as="targetPoint" />
          </mxGeometry>
        </mxCell>
        <mxCell id="WNUJylYaXTF2REMwHw2I-32" value="&amp;lt;&amp;lt;extend&amp;gt;&amp;gt;" style="endArrow=open;endSize=12;dashed=1;html=1;rounded=0;exitX=0.5;exitY=1;exitDx=0;exitDy=0;entryX=0.5;entryY=0;entryDx=0;entryDy=0;" edge="1" parent="WNUJylYaXTF2REMwHw2I-1" source="WNUJylYaXTF2REMwHw2I-7" target="WNUJylYaXTF2REMwHw2I-8">
          <mxGeometry width="160" relative="1" as="geometry">
            <mxPoint x="100" y="329.58" as="sourcePoint" />
            <mxPoint x="260" y="329.58" as="targetPoint" />
          </mxGeometry>
        </mxCell>
        <mxCell id="WNUJylYaXTF2REMwHw2I-37" value="Task Manager Board" style="text;html=1;align=center;verticalAlign=middle;resizable=0;points=[];autosize=1;strokeColor=none;fillColor=none;" vertex="1" parent="WNUJylYaXTF2REMwHw2I-1">
          <mxGeometry x="180" width="130" height="30" as="geometry" />
        </mxCell>
        <mxCell id="WNUJylYaXTF2REMwHw2I-38" value="Delete Task" style="ellipse;whiteSpace=wrap;html=1;" vertex="1" parent="WNUJylYaXTF2REMwHw2I-1">
          <mxGeometry x="335" y="60" width="120" height="80" as="geometry" />
        </mxCell>
        <mxCell id="WNUJylYaXTF2REMwHw2I-39" value="&amp;lt;&amp;lt;extend&amp;gt;&amp;gt;" style="endArrow=open;endSize=12;dashed=1;html=1;rounded=0;exitX=0.989;exitY=0.417;exitDx=0;exitDy=0;entryX=-0.003;entryY=0.676;entryDx=0;entryDy=0;exitPerimeter=0;entryPerimeter=0;" edge="1" parent="WNUJylYaXTF2REMwHw2I-1" source="WNUJylYaXTF2REMwHw2I-4" target="WNUJylYaXTF2REMwHw2I-38">
          <mxGeometry width="160" relative="1" as="geometry">
            <mxPoint x="134.57999999999998" y="130" as="sourcePoint" />
            <mxPoint x="134.57999999999998" y="210" as="targetPoint" />
          </mxGeometry>
        </mxCell>
        <mxCell id="wspAZhLDzD5l1BLYBw8h-1" value="Manage Task" style="ellipse;whiteSpace=wrap;html=1;" vertex="1" parent="WNUJylYaXTF2REMwHw2I-1">
          <mxGeometry x="60" y="180" width="120" height="80" as="geometry" />
        </mxCell>
        <mxCell id="wspAZhLDzD5l1BLYBw8h-2" value="Assign Task" style="ellipse;whiteSpace=wrap;html=1;" vertex="1" parent="WNUJylYaXTF2REMwHw2I-1">
          <mxGeometry x="60" y="270" width="120" height="80" as="geometry" />
        </mxCell>
        <mxCell id="wspAZhLDzD5l1BLYBw8h-3" value="Manage&lt;div&gt;Employee&lt;/div&gt;&lt;div&gt;Logins&lt;/div&gt;" style="ellipse;whiteSpace=wrap;html=1;" vertex="1" parent="WNUJylYaXTF2REMwHw2I-1">
          <mxGeometry x="60" y="360" width="120" height="80" as="geometry" />
        </mxCell>
        <mxCell id="WNUJylYaXTF2REMwHw2I-2" value="Manager" style="shape=umlActor;verticalLabelPosition=bottom;verticalAlign=top;html=1;outlineConnect=0;" vertex="1" parent="1">
          <mxGeometry x="30" y="310" width="70" height="120" as="geometry" />
        </mxCell>
        <mxCell id="WNUJylYaXTF2REMwHw2I-12" value="" style="endArrow=classic;html=1;rounded=0;entryX=0;entryY=0.5;entryDx=0;entryDy=0;exitX=0.5;exitY=0.5;exitDx=0;exitDy=0;exitPerimeter=0;" edge="1" parent="1" source="WNUJylYaXTF2REMwHw2I-2" target="WNUJylYaXTF2REMwHw2I-4">
          <mxGeometry width="50" height="50" relative="1" as="geometry">
            <mxPoint x="390.0048387096773" y="410" as="sourcePoint" />
            <mxPoint x="430.65" y="200" as="targetPoint" />
          </mxGeometry>
        </mxCell>
        <mxCell id="WNUJylYaXTF2REMwHw2I-13" value="" style="endArrow=classic;html=1;rounded=0;entryX=0;entryY=0.5;entryDx=0;entryDy=0;exitX=0.5;exitY=0.5;exitDx=0;exitDy=0;exitPerimeter=0;" edge="1" parent="1" source="WNUJylYaXTF2REMwHw2I-2" target="WNUJylYaXTF2REMwHw2I-7">
          <mxGeometry width="50" height="50" relative="1" as="geometry">
            <mxPoint x="130" y="330" as="sourcePoint" />
            <mxPoint x="280" y="290" as="targetPoint" />
          </mxGeometry>
        </mxCell>
        <mxCell id="WNUJylYaXTF2REMwHw2I-25" value="Employee" style="shape=umlActor;verticalLabelPosition=bottom;verticalAlign=top;html=1;outlineConnect=0;" vertex="1" parent="1">
          <mxGeometry x="30" y="530" width="70" height="120" as="geometry" />
        </mxCell>
        <mxCell id="WNUJylYaXTF2REMwHw2I-29" value="" style="endArrow=classic;html=1;rounded=0;entryX=0;entryY=0.5;entryDx=0;entryDy=0;exitX=0.5;exitY=0.5;exitDx=0;exitDy=0;exitPerimeter=0;" edge="1" parent="1" source="WNUJylYaXTF2REMwHw2I-25" target="WNUJylYaXTF2REMwHw2I-7">
          <mxGeometry width="50" height="50" relative="1" as="geometry">
            <mxPoint x="80" y="450" as="sourcePoint" />
            <mxPoint x="230" y="410" as="targetPoint" />
          </mxGeometry>
        </mxCell>
        <mxCell id="WNUJylYaXTF2REMwHw2I-31" value="" style="endArrow=classic;html=1;rounded=0;entryX=0;entryY=0.5;entryDx=0;entryDy=0;exitX=0.5;exitY=0.5;exitDx=0;exitDy=0;exitPerimeter=0;" edge="1" parent="1" source="WNUJylYaXTF2REMwHw2I-25" target="WNUJylYaXTF2REMwHw2I-8">
          <mxGeometry width="50" height="50" relative="1" as="geometry">
            <mxPoint x="70" y="440" as="sourcePoint" />
            <mxPoint x="250" y="430" as="targetPoint" />
          </mxGeometry>
        </mxCell>
        <mxCell id="WNUJylYaXTF2REMwHw2I-33" value="API" style="shape=umlActor;verticalLabelPosition=bottom;verticalAlign=top;html=1;outlineConnect=0;" vertex="1" parent="1">
          <mxGeometry x="30" y="710" width="70" height="120" as="geometry" />
        </mxCell>
        <mxCell id="WNUJylYaXTF2REMwHw2I-36" value="" style="endArrow=classic;html=1;rounded=0;entryX=0;entryY=0.5;entryDx=0;entryDy=0;exitX=0.5;exitY=0.5;exitDx=0;exitDy=0;exitPerimeter=0;" edge="1" parent="1" source="WNUJylYaXTF2REMwHw2I-33" target="WNUJylYaXTF2REMwHw2I-8">
          <mxGeometry width="50" height="50" relative="1" as="geometry">
            <mxPoint x="150" y="610" as="sourcePoint" />
            <mxPoint x="300" y="700" as="targetPoint" />
          </mxGeometry>
        </mxCell>
        <mxCell id="40J2DICRq61OIILWzOeG-1" value="&lt;h1 style=&quot;margin-top: 0px;&quot;&gt;Use Case Diagram&lt;/h1&gt;&lt;p&gt;This UML use case diagram shows the basic high-level interaction between actors and the system including, manager, employee, and an API.&lt;/p&gt;" style="text;html=1;whiteSpace=wrap;overflow=hidden;rounded=0;" vertex="1" parent="1">
          <mxGeometry x="170" y="20" width="430" height="80" as="geometry" />
        </mxCell>
        <mxCell id="wspAZhLDzD5l1BLYBw8h-4" value="" style="endArrow=classic;html=1;rounded=0;exitX=0.5;exitY=0.5;exitDx=0;exitDy=0;exitPerimeter=0;entryX=0;entryY=0.5;entryDx=0;entryDy=0;" edge="1" parent="1" source="WNUJylYaXTF2REMwHw2I-2" target="wspAZhLDzD5l1BLYBw8h-1">
          <mxGeometry width="50" height="50" relative="1" as="geometry">
            <mxPoint x="420" y="450" as="sourcePoint" />
            <mxPoint x="470" y="400" as="targetPoint" />
          </mxGeometry>
        </mxCell>
        <mxCell id="wspAZhLDzD5l1BLYBw8h-5" value="" style="endArrow=classic;html=1;rounded=0;exitX=0.5;exitY=0.5;exitDx=0;exitDy=0;exitPerimeter=0;entryX=0.042;entryY=0.375;entryDx=0;entryDy=0;entryPerimeter=0;" edge="1" parent="1" source="WNUJylYaXTF2REMwHw2I-2" target="wspAZhLDzD5l1BLYBw8h-2">
          <mxGeometry width="50" height="50" relative="1" as="geometry">
            <mxPoint x="65" y="410" as="sourcePoint" />
            <mxPoint x="225" y="380" as="targetPoint" />
          </mxGeometry>
        </mxCell>
        <mxCell id="wspAZhLDzD5l1BLYBw8h-6" value="" style="endArrow=classic;html=1;rounded=0;exitX=0.5;exitY=0.5;exitDx=0;exitDy=0;exitPerimeter=0;entryX=0;entryY=0.5;entryDx=0;entryDy=0;" edge="1" parent="1" source="WNUJylYaXTF2REMwHw2I-2" target="wspAZhLDzD5l1BLYBw8h-3">
          <mxGeometry width="50" height="50" relative="1" as="geometry">
            <mxPoint x="60" y="400" as="sourcePoint" />
            <mxPoint x="225" y="450" as="targetPoint" />
          </mxGeometry>
        </mxCell>
      </root>
    </mxGraphModel>
  </diagram>
  <diagram id="lGpBw3GZEyQHdhp9TfPw" name="Sequence">
    <mxGraphModel dx="1046" dy="578" grid="1" gridSize="10" guides="1" tooltips="1" connect="1" arrows="1" fold="1" page="1" pageScale="1" pageWidth="850" pageHeight="1100" math="0" shadow="0">
      <root>
        <mxCell id="0" />
        <mxCell id="1" parent="0" />
        <mxCell id="cv94YtiHb2Md4VW6K36g-1" value="" style="html=1;points=[[0,0,0,0,5],[0,1,0,0,-5],[1,0,0,0,5],[1,1,0,0,-5]];perimeter=orthogonalPerimeter;outlineConnect=0;targetShapes=umlLifeline;portConstraint=eastwest;newEdgeStyle={&quot;curved&quot;:0,&quot;rounded&quot;:0};" vertex="1" parent="1">
          <mxGeometry x="210" y="240" width="10" height="160" as="geometry" />
        </mxCell>
        <mxCell id="Z_BzzYRyI4ToRYWU1Jx1-1" value="&lt;h1 style=&quot;margin-top: 0px;&quot;&gt;Sequence Diagram&lt;/h1&gt;&lt;p&gt;This UML sequence diagram shows the basic high-level timeline of each interaction between actors and the system&lt;/p&gt;" style="text;html=1;whiteSpace=wrap;overflow=hidden;rounded=0;" vertex="1" parent="1">
          <mxGeometry x="210" y="10" width="430" height="80" as="geometry" />
        </mxCell>
        <mxCell id="Z_BzzYRyI4ToRYWU1Jx1-3" value="Template" style="rounded=0;whiteSpace=wrap;html=1;" vertex="1" parent="1">
          <mxGeometry x="155" y="120" width="120" height="60" as="geometry" />
        </mxCell>
        <mxCell id="Z_BzzYRyI4ToRYWU1Jx1-5" value="" style="endArrow=none;dashed=1;html=1;dashPattern=1 3;strokeWidth=2;rounded=0;entryX=0.5;entryY=1;entryDx=0;entryDy=0;exitX=0.507;exitY=-0.002;exitDx=0;exitDy=0;exitPerimeter=0;" edge="1" parent="1" source="cv94YtiHb2Md4VW6K36g-1" target="Z_BzzYRyI4ToRYWU1Jx1-3">
          <mxGeometry width="50" height="50" relative="1" as="geometry">
            <mxPoint x="400" y="300" as="sourcePoint" />
            <mxPoint x="220" y="180" as="targetPoint" />
          </mxGeometry>
        </mxCell>
        <mxCell id="Z_BzzYRyI4ToRYWU1Jx1-6" value="" style="html=1;points=[[0,0,0,0,5],[0,1,0,0,-5],[1,0,0,0,5],[1,1,0,0,-5]];perimeter=orthogonalPerimeter;outlineConnect=0;targetShapes=umlLifeline;portConstraint=eastwest;newEdgeStyle={&quot;curved&quot;:0,&quot;rounded&quot;:0};" vertex="1" parent="1">
          <mxGeometry x="415" y="270" width="10" height="120" as="geometry" />
        </mxCell>
        <mxCell id="Z_BzzYRyI4ToRYWU1Jx1-7" value="Controller" style="rounded=0;whiteSpace=wrap;html=1;" vertex="1" parent="1">
          <mxGeometry x="360" y="120" width="120" height="60" as="geometry" />
        </mxCell>
        <mxCell id="Z_BzzYRyI4ToRYWU1Jx1-8" value="" style="endArrow=none;dashed=1;html=1;dashPattern=1 3;strokeWidth=2;rounded=0;entryX=0.5;entryY=1;entryDx=0;entryDy=0;exitX=0.507;exitY=-0.002;exitDx=0;exitDy=0;exitPerimeter=0;" edge="1" source="Z_BzzYRyI4ToRYWU1Jx1-6" target="Z_BzzYRyI4ToRYWU1Jx1-7" parent="1">
          <mxGeometry width="50" height="50" relative="1" as="geometry">
            <mxPoint x="605" y="300" as="sourcePoint" />
            <mxPoint x="425" y="180" as="targetPoint" />
          </mxGeometry>
        </mxCell>
        <mxCell id="Z_BzzYRyI4ToRYWU1Jx1-9" value="" style="html=1;points=[[0,0,0,0,5],[0,1,0,0,-5],[1,0,0,0,5],[1,1,0,0,-5]];perimeter=orthogonalPerimeter;outlineConnect=0;targetShapes=umlLifeline;portConstraint=eastwest;newEdgeStyle={&quot;curved&quot;:0,&quot;rounded&quot;:0};" vertex="1" parent="1">
          <mxGeometry x="625" y="280" width="10" height="40" as="geometry" />
        </mxCell>
        <mxCell id="Z_BzzYRyI4ToRYWU1Jx1-10" value="DataBase" style="rounded=0;whiteSpace=wrap;html=1;" vertex="1" parent="1">
          <mxGeometry x="570" y="120" width="120" height="60" as="geometry" />
        </mxCell>
        <mxCell id="Z_BzzYRyI4ToRYWU1Jx1-11" value="" style="endArrow=none;dashed=1;html=1;dashPattern=1 3;strokeWidth=2;rounded=0;entryX=0.5;entryY=1;entryDx=0;entryDy=0;exitX=0.507;exitY=-0.002;exitDx=0;exitDy=0;exitPerimeter=0;" edge="1" source="Z_BzzYRyI4ToRYWU1Jx1-9" target="Z_BzzYRyI4ToRYWU1Jx1-10" parent="1">
          <mxGeometry width="50" height="50" relative="1" as="geometry">
            <mxPoint x="815" y="300" as="sourcePoint" />
            <mxPoint x="635" y="180" as="targetPoint" />
          </mxGeometry>
        </mxCell>
        <mxCell id="Z_BzzYRyI4ToRYWU1Jx1-13" style="edgeStyle=orthogonalEdgeStyle;rounded=0;orthogonalLoop=1;jettySize=auto;html=1;exitX=0.5;exitY=0.5;exitDx=0;exitDy=0;exitPerimeter=0;" edge="1" parent="1" source="Z_BzzYRyI4ToRYWU1Jx1-12">
          <mxGeometry relative="1" as="geometry">
            <mxPoint x="150" y="150" as="targetPoint" />
            <Array as="points">
              <mxPoint x="20" y="200" />
              <mxPoint x="20" y="150" />
            </Array>
          </mxGeometry>
        </mxCell>
        <mxCell id="Z_BzzYRyI4ToRYWU1Jx1-12" value="User" style="shape=umlActor;verticalLabelPosition=bottom;verticalAlign=top;html=1;outlineConnect=0;" vertex="1" parent="1">
          <mxGeometry x="50" y="170" width="30" height="60" as="geometry" />
        </mxCell>
        <mxCell id="zlYR2fnFPi0vXYf5ZXyO-1" value="Login" style="endArrow=open;endSize=12;dashed=1;html=1;rounded=0;" edge="1" parent="1">
          <mxGeometry width="160" relative="1" as="geometry">
            <mxPoint x="220" y="270" as="sourcePoint" />
            <mxPoint x="410" y="270" as="targetPoint" />
          </mxGeometry>
        </mxCell>
        <mxCell id="NFzuqzCsUfSRD5jzhFYB-1" value="Query user details" style="endArrow=open;endSize=12;dashed=1;html=1;rounded=0;" edge="1" parent="1" target="Z_BzzYRyI4ToRYWU1Jx1-9">
          <mxGeometry width="160" relative="1" as="geometry">
            <mxPoint x="425" y="280" as="sourcePoint" />
            <mxPoint x="615" y="280" as="targetPoint" />
          </mxGeometry>
        </mxCell>
        <mxCell id="NFzuqzCsUfSRD5jzhFYB-2" value="" style="endArrow=open;endSize=12;dashed=1;html=1;rounded=0;" edge="1" parent="1" source="Z_BzzYRyI4ToRYWU1Jx1-9">
          <mxGeometry width="160" relative="1" as="geometry">
            <mxPoint x="550" y="360" as="sourcePoint" />
            <mxPoint x="430" y="320" as="targetPoint" />
          </mxGeometry>
        </mxCell>
        <mxCell id="Y1o_k8p3oo7gl_ECg7qO-29" value="return user detail" style="edgeLabel;html=1;align=center;verticalAlign=middle;resizable=0;points=[];" vertex="1" connectable="0" parent="NFzuqzCsUfSRD5jzhFYB-2">
          <mxGeometry x="-0.2901" y="2" relative="1" as="geometry">
            <mxPoint as="offset" />
          </mxGeometry>
        </mxCell>
        <mxCell id="NFzuqzCsUfSRD5jzhFYB-4" value="Validate user" style="html=1;align=left;spacingLeft=2;endArrow=block;rounded=0;edgeStyle=orthogonalEdgeStyle;curved=0;rounded=0;" edge="1" parent="1">
          <mxGeometry relative="1" as="geometry">
            <mxPoint x="425" y="340" as="sourcePoint" />
            <Array as="points">
              <mxPoint x="455" y="370" />
            </Array>
            <mxPoint x="430" y="370.0000000000001" as="targetPoint" />
          </mxGeometry>
        </mxCell>
        <mxCell id="NFzuqzCsUfSRD5jzhFYB-5" value="Successful Login" style="endArrow=open;endSize=12;dashed=1;html=1;rounded=0;exitX=0;exitY=1;exitDx=0;exitDy=-5;exitPerimeter=0;" edge="1" parent="1" source="Z_BzzYRyI4ToRYWU1Jx1-6" target="cv94YtiHb2Md4VW6K36g-1">
          <mxGeometry width="160" relative="1" as="geometry">
            <mxPoint x="410" y="390" as="sourcePoint" />
            <mxPoint x="425" y="460" as="targetPoint" />
          </mxGeometry>
        </mxCell>
        <mxCell id="NFzuqzCsUfSRD5jzhFYB-6" value="" style="endArrow=none;dashed=1;html=1;dashPattern=1 3;strokeWidth=2;rounded=0;" edge="1" parent="1" source="NFzuqzCsUfSRD5jzhFYB-7" target="cv94YtiHb2Md4VW6K36g-1">
          <mxGeometry width="50" height="50" relative="1" as="geometry">
            <mxPoint x="215" y="480" as="sourcePoint" />
            <mxPoint x="214.64" y="430" as="targetPoint" />
          </mxGeometry>
        </mxCell>
        <mxCell id="NFzuqzCsUfSRD5jzhFYB-7" value="" style="html=1;points=[[0,0,0,0,5],[0,1,0,0,-5],[1,0,0,0,5],[1,1,0,0,-5]];perimeter=orthogonalPerimeter;outlineConnect=0;targetShapes=umlLifeline;portConstraint=eastwest;newEdgeStyle={&quot;curved&quot;:0,&quot;rounded&quot;:0};" vertex="1" parent="1">
          <mxGeometry x="210" y="480" width="10" height="160" as="geometry" />
        </mxCell>
        <mxCell id="LVej7dkyPY3mQoypGhCl-1" value="Add Task" style="endArrow=open;endSize=12;dashed=1;html=1;rounded=0;" edge="1" parent="1" source="NFzuqzCsUfSRD5jzhFYB-7">
          <mxGeometry width="160" relative="1" as="geometry">
            <mxPoint x="235" y="510" as="sourcePoint" />
            <mxPoint x="410" y="510" as="targetPoint" />
          </mxGeometry>
        </mxCell>
        <mxCell id="LVej7dkyPY3mQoypGhCl-2" value="" style="html=1;points=[[0,0,0,0,5],[0,1,0,0,-5],[1,0,0,0,5],[1,1,0,0,-5]];perimeter=orthogonalPerimeter;outlineConnect=0;targetShapes=umlLifeline;portConstraint=eastwest;newEdgeStyle={&quot;curved&quot;:0,&quot;rounded&quot;:0};" vertex="1" parent="1">
          <mxGeometry x="415" y="510" width="10" height="120" as="geometry" />
        </mxCell>
        <mxCell id="LVej7dkyPY3mQoypGhCl-3" value="" style="endArrow=none;dashed=1;html=1;dashPattern=1 3;strokeWidth=2;rounded=0;" edge="1" parent="1" source="LVej7dkyPY3mQoypGhCl-2" target="Z_BzzYRyI4ToRYWU1Jx1-6">
          <mxGeometry width="50" height="50" relative="1" as="geometry">
            <mxPoint x="440" y="500" as="sourcePoint" />
            <mxPoint x="440" y="410" as="targetPoint" />
          </mxGeometry>
        </mxCell>
        <mxCell id="LVej7dkyPY3mQoypGhCl-4" value="" style="html=1;points=[[0,0,0,0,5],[0,1,0,0,-5],[1,0,0,0,5],[1,1,0,0,-5]];perimeter=orthogonalPerimeter;outlineConnect=0;targetShapes=umlLifeline;portConstraint=eastwest;newEdgeStyle={&quot;curved&quot;:0,&quot;rounded&quot;:0};" vertex="1" parent="1">
          <mxGeometry x="625" y="520" width="10" height="70" as="geometry" />
        </mxCell>
        <mxCell id="LVej7dkyPY3mQoypGhCl-6" value="" style="endArrow=none;dashed=1;html=1;dashPattern=1 3;strokeWidth=2;rounded=0;" edge="1" parent="1" source="LVej7dkyPY3mQoypGhCl-4" target="Z_BzzYRyI4ToRYWU1Jx1-9">
          <mxGeometry width="50" height="50" relative="1" as="geometry">
            <mxPoint x="629.64" y="470" as="sourcePoint" />
            <mxPoint x="629.64" y="370" as="targetPoint" />
          </mxGeometry>
        </mxCell>
        <mxCell id="LVej7dkyPY3mQoypGhCl-7" value="Validate and Save Task" style="endArrow=open;endSize=12;dashed=1;html=1;rounded=0;" edge="1" parent="1">
          <mxGeometry width="160" relative="1" as="geometry">
            <mxPoint x="425" y="520" as="sourcePoint" />
            <mxPoint x="615" y="520" as="targetPoint" />
          </mxGeometry>
        </mxCell>
        <mxCell id="LVej7dkyPY3mQoypGhCl-8" value="Store Task" style="html=1;align=left;spacingLeft=2;endArrow=block;rounded=0;edgeStyle=orthogonalEdgeStyle;curved=0;rounded=0;" edge="1" parent="1">
          <mxGeometry relative="1" as="geometry">
            <mxPoint x="635" y="530" as="sourcePoint" />
            <Array as="points">
              <mxPoint x="665" y="560" />
            </Array>
            <mxPoint x="640" y="560.0000000000001" as="targetPoint" />
          </mxGeometry>
        </mxCell>
        <mxCell id="LVej7dkyPY3mQoypGhCl-9" value="" style="endArrow=open;endSize=12;dashed=1;html=1;rounded=0;" edge="1" parent="1">
          <mxGeometry width="160" relative="1" as="geometry">
            <mxPoint x="620" y="580" as="sourcePoint" />
            <mxPoint x="425" y="580" as="targetPoint" />
          </mxGeometry>
        </mxCell>
        <mxCell id="LVej7dkyPY3mQoypGhCl-10" value="Acknowledge" style="edgeLabel;html=1;align=center;verticalAlign=middle;resizable=0;points=[];" vertex="1" connectable="0" parent="LVej7dkyPY3mQoypGhCl-9">
          <mxGeometry x="-0.0996" y="1" relative="1" as="geometry">
            <mxPoint as="offset" />
          </mxGeometry>
        </mxCell>
        <mxCell id="LVej7dkyPY3mQoypGhCl-11" value="Add Task Response" style="endArrow=open;endSize=12;dashed=1;html=1;rounded=0;exitX=0;exitY=1;exitDx=0;exitDy=-5;exitPerimeter=0;" edge="1" parent="1">
          <mxGeometry width="160" relative="1" as="geometry">
            <mxPoint x="415" y="610" as="sourcePoint" />
            <mxPoint x="220" y="610" as="targetPoint" />
          </mxGeometry>
        </mxCell>
        <mxCell id="Y1o_k8p3oo7gl_ECg7qO-3" value="" style="html=1;points=[[0,0,0,0,5],[0,1,0,0,-5],[1,0,0,0,5],[1,1,0,0,-5]];perimeter=orthogonalPerimeter;outlineConnect=0;targetShapes=umlLifeline;portConstraint=eastwest;newEdgeStyle={&quot;curved&quot;:0,&quot;rounded&quot;:0};" vertex="1" parent="1">
          <mxGeometry x="210" y="700" width="10" height="160" as="geometry" />
        </mxCell>
        <mxCell id="Y1o_k8p3oo7gl_ECg7qO-4" value="Update task" style="endArrow=open;endSize=12;dashed=1;html=1;rounded=0;" edge="1" source="Y1o_k8p3oo7gl_ECg7qO-3" parent="1">
          <mxGeometry width="160" relative="1" as="geometry">
            <mxPoint x="235" y="730" as="sourcePoint" />
            <mxPoint x="410" y="730" as="targetPoint" />
          </mxGeometry>
        </mxCell>
        <mxCell id="Y1o_k8p3oo7gl_ECg7qO-5" value="" style="html=1;points=[[0,0,0,0,5],[0,1,0,0,-5],[1,0,0,0,5],[1,1,0,0,-5]];perimeter=orthogonalPerimeter;outlineConnect=0;targetShapes=umlLifeline;portConstraint=eastwest;newEdgeStyle={&quot;curved&quot;:0,&quot;rounded&quot;:0};" vertex="1" parent="1">
          <mxGeometry x="415" y="730" width="10" height="120" as="geometry" />
        </mxCell>
        <mxCell id="Y1o_k8p3oo7gl_ECg7qO-6" value="" style="html=1;points=[[0,0,0,0,5],[0,1,0,0,-5],[1,0,0,0,5],[1,1,0,0,-5]];perimeter=orthogonalPerimeter;outlineConnect=0;targetShapes=umlLifeline;portConstraint=eastwest;newEdgeStyle={&quot;curved&quot;:0,&quot;rounded&quot;:0};" vertex="1" parent="1">
          <mxGeometry x="625" y="740" width="10" height="70" as="geometry" />
        </mxCell>
        <mxCell id="Y1o_k8p3oo7gl_ECg7qO-7" value="Validate and Save Task" style="endArrow=open;endSize=12;dashed=1;html=1;rounded=0;" edge="1" parent="1">
          <mxGeometry width="160" relative="1" as="geometry">
            <mxPoint x="425" y="740" as="sourcePoint" />
            <mxPoint x="615" y="740" as="targetPoint" />
          </mxGeometry>
        </mxCell>
        <mxCell id="Y1o_k8p3oo7gl_ECg7qO-8" value="Store Task" style="html=1;align=left;spacingLeft=2;endArrow=block;rounded=0;edgeStyle=orthogonalEdgeStyle;curved=0;rounded=0;" edge="1" parent="1">
          <mxGeometry relative="1" as="geometry">
            <mxPoint x="635" y="750" as="sourcePoint" />
            <Array as="points">
              <mxPoint x="665" y="780" />
            </Array>
            <mxPoint x="640" y="780.0000000000001" as="targetPoint" />
          </mxGeometry>
        </mxCell>
        <mxCell id="Y1o_k8p3oo7gl_ECg7qO-9" value="" style="endArrow=open;endSize=12;dashed=1;html=1;rounded=0;" edge="1" parent="1">
          <mxGeometry width="160" relative="1" as="geometry">
            <mxPoint x="620" y="800" as="sourcePoint" />
            <mxPoint x="425" y="800" as="targetPoint" />
          </mxGeometry>
        </mxCell>
        <mxCell id="Y1o_k8p3oo7gl_ECg7qO-10" value="Acknowledge" style="edgeLabel;html=1;align=center;verticalAlign=middle;resizable=0;points=[];" vertex="1" connectable="0" parent="Y1o_k8p3oo7gl_ECg7qO-9">
          <mxGeometry x="-0.0996" y="1" relative="1" as="geometry">
            <mxPoint as="offset" />
          </mxGeometry>
        </mxCell>
        <mxCell id="Y1o_k8p3oo7gl_ECg7qO-11" value="Update task Response" style="endArrow=open;endSize=12;dashed=1;html=1;rounded=0;exitX=0;exitY=1;exitDx=0;exitDy=-5;exitPerimeter=0;" edge="1" parent="1">
          <mxGeometry width="160" relative="1" as="geometry">
            <mxPoint x="415" y="830" as="sourcePoint" />
            <mxPoint x="220" y="830" as="targetPoint" />
          </mxGeometry>
        </mxCell>
        <mxCell id="Y1o_k8p3oo7gl_ECg7qO-12" value="" style="endArrow=none;dashed=1;html=1;dashPattern=1 3;strokeWidth=2;rounded=0;" edge="1" parent="1" source="Y1o_k8p3oo7gl_ECg7qO-3" target="NFzuqzCsUfSRD5jzhFYB-7">
          <mxGeometry width="50" height="50" relative="1" as="geometry">
            <mxPoint x="270" y="690" as="sourcePoint" />
            <mxPoint x="270" y="610" as="targetPoint" />
          </mxGeometry>
        </mxCell>
        <mxCell id="Y1o_k8p3oo7gl_ECg7qO-13" value="" style="endArrow=none;dashed=1;html=1;dashPattern=1 3;strokeWidth=2;rounded=0;" edge="1" parent="1" source="Y1o_k8p3oo7gl_ECg7qO-5" target="LVej7dkyPY3mQoypGhCl-2">
          <mxGeometry width="50" height="50" relative="1" as="geometry">
            <mxPoint x="475" y="720" as="sourcePoint" />
            <mxPoint x="475" y="600" as="targetPoint" />
          </mxGeometry>
        </mxCell>
        <mxCell id="Y1o_k8p3oo7gl_ECg7qO-14" value="" style="endArrow=none;dashed=1;html=1;dashPattern=1 3;strokeWidth=2;rounded=0;" edge="1" parent="1" source="Y1o_k8p3oo7gl_ECg7qO-6" target="LVej7dkyPY3mQoypGhCl-4">
          <mxGeometry width="50" height="50" relative="1" as="geometry">
            <mxPoint x="685" y="730" as="sourcePoint" />
            <mxPoint x="685" y="530" as="targetPoint" />
          </mxGeometry>
        </mxCell>
        <mxCell id="Y1o_k8p3oo7gl_ECg7qO-15" value="" style="html=1;points=[[0,0,0,0,5],[0,1,0,0,-5],[1,0,0,0,5],[1,1,0,0,-5]];perimeter=orthogonalPerimeter;outlineConnect=0;targetShapes=umlLifeline;portConstraint=eastwest;newEdgeStyle={&quot;curved&quot;:0,&quot;rounded&quot;:0};" vertex="1" parent="1">
          <mxGeometry x="210" y="920" width="10" height="160" as="geometry" />
        </mxCell>
        <mxCell id="Y1o_k8p3oo7gl_ECg7qO-16" value="View task list" style="endArrow=open;endSize=12;dashed=1;html=1;rounded=0;" edge="1" source="Y1o_k8p3oo7gl_ECg7qO-15" parent="1">
          <mxGeometry width="160" relative="1" as="geometry">
            <mxPoint x="235" y="950" as="sourcePoint" />
            <mxPoint x="410" y="950" as="targetPoint" />
          </mxGeometry>
        </mxCell>
        <mxCell id="Y1o_k8p3oo7gl_ECg7qO-17" value="" style="html=1;points=[[0,0,0,0,5],[0,1,0,0,-5],[1,0,0,0,5],[1,1,0,0,-5]];perimeter=orthogonalPerimeter;outlineConnect=0;targetShapes=umlLifeline;portConstraint=eastwest;newEdgeStyle={&quot;curved&quot;:0,&quot;rounded&quot;:0};" vertex="1" parent="1">
          <mxGeometry x="415" y="950" width="10" height="120" as="geometry" />
        </mxCell>
        <mxCell id="Y1o_k8p3oo7gl_ECg7qO-18" value="" style="html=1;points=[[0,0,0,0,5],[0,1,0,0,-5],[1,0,0,0,5],[1,1,0,0,-5]];perimeter=orthogonalPerimeter;outlineConnect=0;targetShapes=umlLifeline;portConstraint=eastwest;newEdgeStyle={&quot;curved&quot;:0,&quot;rounded&quot;:0};" vertex="1" parent="1">
          <mxGeometry x="625" y="960" width="10" height="70" as="geometry" />
        </mxCell>
        <mxCell id="Y1o_k8p3oo7gl_ECg7qO-19" value="query task list" style="endArrow=open;endSize=12;dashed=1;html=1;rounded=0;" edge="1" parent="1">
          <mxGeometry width="160" relative="1" as="geometry">
            <mxPoint x="425" y="960" as="sourcePoint" />
            <mxPoint x="615" y="960" as="targetPoint" />
          </mxGeometry>
        </mxCell>
        <mxCell id="Y1o_k8p3oo7gl_ECg7qO-21" value="" style="endArrow=open;endSize=12;dashed=1;html=1;rounded=0;" edge="1" parent="1">
          <mxGeometry width="160" relative="1" as="geometry">
            <mxPoint x="620" y="1020" as="sourcePoint" />
            <mxPoint x="425" y="1020" as="targetPoint" />
          </mxGeometry>
        </mxCell>
        <mxCell id="Y1o_k8p3oo7gl_ECg7qO-22" value="return task list" style="edgeLabel;html=1;align=center;verticalAlign=middle;resizable=0;points=[];" vertex="1" connectable="0" parent="Y1o_k8p3oo7gl_ECg7qO-21">
          <mxGeometry x="-0.0996" y="1" relative="1" as="geometry">
            <mxPoint as="offset" />
          </mxGeometry>
        </mxCell>
        <mxCell id="Y1o_k8p3oo7gl_ECg7qO-23" value="display task list" style="endArrow=open;endSize=12;dashed=1;html=1;rounded=0;exitX=0;exitY=1;exitDx=0;exitDy=-5;exitPerimeter=0;" edge="1" parent="1">
          <mxGeometry width="160" relative="1" as="geometry">
            <mxPoint x="415" y="1050" as="sourcePoint" />
            <mxPoint x="220" y="1050" as="targetPoint" />
          </mxGeometry>
        </mxCell>
        <mxCell id="Y1o_k8p3oo7gl_ECg7qO-25" value="" style="endArrow=none;dashed=1;html=1;dashPattern=1 3;strokeWidth=2;rounded=0;" edge="1" parent="1" source="Y1o_k8p3oo7gl_ECg7qO-15" target="Y1o_k8p3oo7gl_ECg7qO-3">
          <mxGeometry width="50" height="50" relative="1" as="geometry">
            <mxPoint x="520" y="930" as="sourcePoint" />
            <mxPoint x="520" y="830" as="targetPoint" />
          </mxGeometry>
        </mxCell>
        <mxCell id="Y1o_k8p3oo7gl_ECg7qO-26" value="" style="endArrow=none;dashed=1;html=1;dashPattern=1 3;strokeWidth=2;rounded=0;" edge="1" parent="1" source="Y1o_k8p3oo7gl_ECg7qO-18" target="Y1o_k8p3oo7gl_ECg7qO-6">
          <mxGeometry width="50" height="50" relative="1" as="geometry">
            <mxPoint x="650" y="950" as="sourcePoint" />
            <mxPoint x="650" y="850" as="targetPoint" />
          </mxGeometry>
        </mxCell>
        <mxCell id="Y1o_k8p3oo7gl_ECg7qO-28" value="" style="endArrow=none;dashed=1;html=1;dashPattern=1 3;strokeWidth=2;rounded=0;" edge="1" parent="1" source="Y1o_k8p3oo7gl_ECg7qO-17" target="Y1o_k8p3oo7gl_ECg7qO-5">
          <mxGeometry width="50" height="50" relative="1" as="geometry">
            <mxPoint x="590" y="930" as="sourcePoint" />
            <mxPoint x="590" y="830" as="targetPoint" />
          </mxGeometry>
        </mxCell>
        <mxCell id="Y1o_k8p3oo7gl_ECg7qO-30" value="API" style="shape=umlActor;verticalLabelPosition=bottom;verticalAlign=top;html=1;outlineConnect=0;" vertex="1" parent="1">
          <mxGeometry x="30" y="980" width="30" height="60" as="geometry" />
        </mxCell>
        <mxCell id="Y1o_k8p3oo7gl_ECg7qO-32" value="" style="endArrow=classic;html=1;rounded=0;exitX=0.5;exitY=0.5;exitDx=0;exitDy=0;exitPerimeter=0;" edge="1" parent="1" source="Y1o_k8p3oo7gl_ECg7qO-30" target="Y1o_k8p3oo7gl_ECg7qO-15">
          <mxGeometry width="50" height="50" relative="1" as="geometry">
            <mxPoint x="340" y="980" as="sourcePoint" />
            <mxPoint x="200" y="1010" as="targetPoint" />
          </mxGeometry>
        </mxCell>
      </root>
    </mxGraphModel>
  </diagram>
  <diagram id="gJFvY4oRIXG1lr6ShAFV" name="Class">
    <mxGraphModel dx="1010" dy="558" grid="1" gridSize="10" guides="1" tooltips="1" connect="1" arrows="1" fold="1" page="1" pageScale="1" pageWidth="850" pageHeight="1100" math="0" shadow="0">
      <root>
        <mxCell id="0" />
        <mxCell id="1" parent="0" />
        <mxCell id="ZWDxDFK8O4-2vAePG213-1" value="&lt;h1 style=&quot;margin-top: 0px;&quot;&gt;Class Diagram&lt;/h1&gt;&lt;p&gt;This UML class diagram shows the static structure of the task manager application, illustrating the relationships between classes.&lt;/p&gt;" style="text;html=1;whiteSpace=wrap;overflow=hidden;rounded=0;" vertex="1" parent="1">
          <mxGeometry x="180" y="30" width="430" height="80" as="geometry" />
        </mxCell>
        <mxCell id="ZWDxDFK8O4-2vAePG213-2" value="Task manager" style="swimlane;fontStyle=1;align=center;verticalAlign=top;childLayout=stackLayout;horizontal=1;startSize=26;horizontalStack=0;resizeParent=1;resizeParentMax=0;resizeLast=0;collapsible=1;marginBottom=0;whiteSpace=wrap;html=1;" vertex="1" parent="1">
          <mxGeometry x="140" y="180" width="190" height="190" as="geometry" />
        </mxCell>
        <mxCell id="ZWDxDFK8O4-2vAePG213-3" value="- tasks: list &amp;lt;Task&amp;gt;" style="text;strokeColor=none;fillColor=none;align=left;verticalAlign=top;spacingLeft=4;spacingRight=4;overflow=hidden;rotatable=0;points=[[0,0.5],[1,0.5]];portConstraint=eastwest;whiteSpace=wrap;html=1;" vertex="1" parent="ZWDxDFK8O4-2vAePG213-2">
          <mxGeometry y="26" width="190" height="26" as="geometry" />
        </mxCell>
        <mxCell id="ZWDxDFK8O4-2vAePG213-4" value="" style="line;strokeWidth=1;fillColor=none;align=left;verticalAlign=middle;spacingTop=-1;spacingLeft=3;spacingRight=3;rotatable=0;labelPosition=right;points=[];portConstraint=eastwest;strokeColor=inherit;" vertex="1" parent="ZWDxDFK8O4-2vAePG213-2">
          <mxGeometry y="52" width="190" height="8" as="geometry" />
        </mxCell>
        <mxCell id="ZWDxDFK8O4-2vAePG213-5" value="+ addTask(task: Task)" style="text;strokeColor=none;fillColor=none;align=left;verticalAlign=top;spacingLeft=4;spacingRight=4;overflow=hidden;rotatable=0;points=[[0,0.5],[1,0.5]];portConstraint=eastwest;whiteSpace=wrap;html=1;" vertex="1" parent="ZWDxDFK8O4-2vAePG213-2">
          <mxGeometry y="60" width="190" height="30" as="geometry" />
        </mxCell>
        <mxCell id="-3YvD34nLf6wjqltraH--1" value="+ markTaskComplete(task: Task)" style="text;strokeColor=none;fillColor=none;align=left;verticalAlign=top;spacingLeft=4;spacingRight=4;overflow=hidden;rotatable=0;points=[[0,0.5],[1,0.5]];portConstraint=eastwest;whiteSpace=wrap;html=1;" vertex="1" parent="ZWDxDFK8O4-2vAePG213-2">
          <mxGeometry y="90" width="190" height="30" as="geometry" />
        </mxCell>
        <mxCell id="21ig2fLLgTrrw6SpTCF1-2" value="+ deleteTask(task: Task)" style="text;strokeColor=none;fillColor=none;align=left;verticalAlign=top;spacingLeft=4;spacingRight=4;overflow=hidden;rotatable=0;points=[[0,0.5],[1,0.5]];portConstraint=eastwest;whiteSpace=wrap;html=1;" vertex="1" parent="ZWDxDFK8O4-2vAePG213-2">
          <mxGeometry y="120" width="190" height="30" as="geometry" />
        </mxCell>
        <mxCell id="H_pEhFMHa5ueZPpxopC2-1" value="+ viewTaskList(): list &amp;lt;Task&amp;gt;&amp;nbsp;" style="text;strokeColor=none;fillColor=none;align=left;verticalAlign=top;spacingLeft=4;spacingRight=4;overflow=hidden;rotatable=0;points=[[0,0.5],[1,0.5]];portConstraint=eastwest;whiteSpace=wrap;html=1;" vertex="1" parent="ZWDxDFK8O4-2vAePG213-2">
          <mxGeometry y="150" width="190" height="40" as="geometry" />
        </mxCell>
        <mxCell id="-3YvD34nLf6wjqltraH--2" value="Task" style="swimlane;fontStyle=1;align=center;verticalAlign=top;childLayout=stackLayout;horizontal=1;startSize=26;horizontalStack=0;resizeParent=1;resizeParentMax=0;resizeLast=0;collapsible=1;marginBottom=0;whiteSpace=wrap;html=1;" vertex="1" parent="1">
          <mxGeometry x="410" y="190" width="170" height="164" as="geometry" />
        </mxCell>
        <mxCell id="-3YvD34nLf6wjqltraH--3" value="- title: String" style="text;strokeColor=none;fillColor=none;align=left;verticalAlign=top;spacingLeft=4;spacingRight=4;overflow=hidden;rotatable=0;points=[[0,0.5],[1,0.5]];portConstraint=eastwest;whiteSpace=wrap;html=1;" vertex="1" parent="-3YvD34nLf6wjqltraH--2">
          <mxGeometry y="26" width="170" height="26" as="geometry" />
        </mxCell>
        <mxCell id="-3YvD34nLf6wjqltraH--10" value="- description: String" style="text;strokeColor=none;fillColor=none;align=left;verticalAlign=top;spacingLeft=4;spacingRight=4;overflow=hidden;rotatable=0;points=[[0,0.5],[1,0.5]];portConstraint=eastwest;whiteSpace=wrap;html=1;" vertex="1" parent="-3YvD34nLf6wjqltraH--2">
          <mxGeometry y="52" width="170" height="26" as="geometry" />
        </mxCell>
        <mxCell id="-3YvD34nLf6wjqltraH--11" value="- status: Bool" style="text;strokeColor=none;fillColor=none;align=left;verticalAlign=top;spacingLeft=4;spacingRight=4;overflow=hidden;rotatable=0;points=[[0,0.5],[1,0.5]];portConstraint=eastwest;whiteSpace=wrap;html=1;" vertex="1" parent="-3YvD34nLf6wjqltraH--2">
          <mxGeometry y="78" width="170" height="26" as="geometry" />
        </mxCell>
        <mxCell id="-3YvD34nLf6wjqltraH--4" value="" style="line;strokeWidth=1;fillColor=none;align=left;verticalAlign=middle;spacingTop=-1;spacingLeft=3;spacingRight=3;rotatable=0;labelPosition=right;points=[];portConstraint=eastwest;strokeColor=inherit;" vertex="1" parent="-3YvD34nLf6wjqltraH--2">
          <mxGeometry y="104" width="170" height="8" as="geometry" />
        </mxCell>
        <mxCell id="-3YvD34nLf6wjqltraH--5" value="+ getTaskDetails(): void" style="text;strokeColor=none;fillColor=none;align=left;verticalAlign=top;spacingLeft=4;spacingRight=4;overflow=hidden;rotatable=0;points=[[0,0.5],[1,0.5]];portConstraint=eastwest;whiteSpace=wrap;html=1;" vertex="1" parent="-3YvD34nLf6wjqltraH--2">
          <mxGeometry y="112" width="170" height="26" as="geometry" />
        </mxCell>
        <mxCell id="21ig2fLLgTrrw6SpTCF1-1" value="+ updateTask(): void" style="text;strokeColor=none;fillColor=none;align=left;verticalAlign=top;spacingLeft=4;spacingRight=4;overflow=hidden;rotatable=0;points=[[0,0.5],[1,0.5]];portConstraint=eastwest;whiteSpace=wrap;html=1;" vertex="1" parent="-3YvD34nLf6wjqltraH--2">
          <mxGeometry y="138" width="170" height="26" as="geometry" />
        </mxCell>
        <mxCell id="-3YvD34nLf6wjqltraH--13" value="" style="html=1;verticalAlign=bottom;endArrow=block;curved=0;rounded=0;entryX=0.474;entryY=1.076;entryDx=0;entryDy=0;entryPerimeter=0;" edge="1" parent="1" source="-3YvD34nLf6wjqltraH--2" target="H_pEhFMHa5ueZPpxopC2-1">
          <mxGeometry x="0.0013" width="80" relative="1" as="geometry">
            <mxPoint x="380" y="370" as="sourcePoint" />
            <mxPoint x="460" y="370" as="targetPoint" />
            <Array as="points">
              <mxPoint x="490" y="410" />
              <mxPoint x="230" y="410" />
            </Array>
            <mxPoint as="offset" />
          </mxGeometry>
        </mxCell>
        <mxCell id="-3YvD34nLf6wjqltraH--14" value="&lt;i&gt;User&lt;/i&gt;" style="swimlane;fontStyle=1;align=center;verticalAlign=top;childLayout=stackLayout;horizontal=1;startSize=26;horizontalStack=0;resizeParent=1;resizeParentMax=0;resizeLast=0;collapsible=1;marginBottom=0;whiteSpace=wrap;html=1;" vertex="1" parent="1">
          <mxGeometry x="620" y="180" width="160" height="112" as="geometry" />
        </mxCell>
        <mxCell id="-3YvD34nLf6wjqltraH--15" value="+ username: String" style="text;strokeColor=none;fillColor=none;align=left;verticalAlign=top;spacingLeft=4;spacingRight=4;overflow=hidden;rotatable=0;points=[[0,0.5],[1,0.5]];portConstraint=eastwest;whiteSpace=wrap;html=1;" vertex="1" parent="-3YvD34nLf6wjqltraH--14">
          <mxGeometry y="26" width="160" height="26" as="geometry" />
        </mxCell>
        <mxCell id="-3YvD34nLf6wjqltraH--16" value="- password: String" style="text;strokeColor=none;fillColor=none;align=left;verticalAlign=top;spacingLeft=4;spacingRight=4;overflow=hidden;rotatable=0;points=[[0,0.5],[1,0.5]];portConstraint=eastwest;whiteSpace=wrap;html=1;" vertex="1" parent="-3YvD34nLf6wjqltraH--14">
          <mxGeometry y="52" width="160" height="26" as="geometry" />
        </mxCell>
        <mxCell id="-3YvD34nLf6wjqltraH--18" value="" style="line;strokeWidth=1;fillColor=none;align=left;verticalAlign=middle;spacingTop=-1;spacingLeft=3;spacingRight=3;rotatable=0;labelPosition=right;points=[];portConstraint=eastwest;strokeColor=inherit;" vertex="1" parent="-3YvD34nLf6wjqltraH--14">
          <mxGeometry y="78" width="160" height="8" as="geometry" />
        </mxCell>
        <mxCell id="-3YvD34nLf6wjqltraH--19" value="+ getUserDetails(): void" style="text;strokeColor=none;fillColor=none;align=left;verticalAlign=top;spacingLeft=4;spacingRight=4;overflow=hidden;rotatable=0;points=[[0,0.5],[1,0.5]];portConstraint=eastwest;whiteSpace=wrap;html=1;" vertex="1" parent="-3YvD34nLf6wjqltraH--14">
          <mxGeometry y="86" width="160" height="26" as="geometry" />
        </mxCell>
        <mxCell id="21ig2fLLgTrrw6SpTCF1-3" value="Admin" style="swimlane;fontStyle=1;align=center;verticalAlign=top;childLayout=stackLayout;horizontal=1;startSize=26;horizontalStack=0;resizeParent=1;resizeParentMax=0;resizeLast=0;collapsible=1;marginBottom=0;whiteSpace=wrap;html=1;" vertex="1" parent="1">
          <mxGeometry x="620" y="370" width="160" height="52" as="geometry" />
        </mxCell>
        <mxCell id="21ig2fLLgTrrw6SpTCF1-4" value="+ admin: bool" style="text;strokeColor=none;fillColor=none;align=left;verticalAlign=top;spacingLeft=4;spacingRight=4;overflow=hidden;rotatable=0;points=[[0,0.5],[1,0.5]];portConstraint=eastwest;whiteSpace=wrap;html=1;" vertex="1" parent="21ig2fLLgTrrw6SpTCF1-3">
          <mxGeometry y="26" width="160" height="26" as="geometry" />
        </mxCell>
        <mxCell id="21ig2fLLgTrrw6SpTCF1-9" style="edgeStyle=orthogonalEdgeStyle;rounded=0;orthogonalLoop=1;jettySize=auto;html=1;exitX=0.5;exitY=0;exitDx=0;exitDy=0;entryX=0.489;entryY=1.027;entryDx=0;entryDy=0;entryPerimeter=0;" edge="1" parent="1" source="21ig2fLLgTrrw6SpTCF1-3" target="-3YvD34nLf6wjqltraH--19">
          <mxGeometry relative="1" as="geometry" />
        </mxCell>
      </root>
    </mxGraphModel>
  </diagram>
  <diagram id="TrPGFTiI6o9rxAgMcR27" name="CRUD">
    <mxGraphModel dx="915" dy="506" grid="1" gridSize="10" guides="1" tooltips="1" connect="1" arrows="1" fold="1" page="1" pageScale="1" pageWidth="850" pageHeight="1100" math="0" shadow="0">
      <root>
        <mxCell id="0" />
        <mxCell id="1" parent="0" />
        <mxCell id="YOCrbF04tF4Y60FLjhrO-1" value="&lt;h1 style=&quot;margin-top: 0px;&quot;&gt;CRUD Matrix&lt;/h1&gt;&lt;p&gt;CRUD diagram showing the operations accessible to certain entities.&lt;/p&gt;" style="text;html=1;whiteSpace=wrap;overflow=hidden;rounded=0;" vertex="1" parent="1">
          <mxGeometry x="180" y="30" width="430" height="80" as="geometry" />
        </mxCell>
        <mxCell id="YOCrbF04tF4Y60FLjhrO-139" value="" style="shape=table;startSize=0;container=1;collapsible=0;childLayout=tableLayout;fontSize=16;" vertex="1" parent="1">
          <mxGeometry x="140" y="160" width="200" height="120" as="geometry" />
        </mxCell>
        <mxCell id="YOCrbF04tF4Y60FLjhrO-140" value="" style="shape=tableRow;horizontal=0;startSize=0;swimlaneHead=0;swimlaneBody=0;strokeColor=inherit;top=0;left=0;bottom=0;right=0;collapsible=0;dropTarget=0;fillColor=none;points=[[0,0.5],[1,0.5]];portConstraint=eastwest;fontSize=16;" vertex="1" parent="YOCrbF04tF4Y60FLjhrO-139">
          <mxGeometry width="200" height="40" as="geometry" />
        </mxCell>
        <mxCell id="YOCrbF04tF4Y60FLjhrO-141" value="" style="shape=partialRectangle;html=1;whiteSpace=wrap;connectable=0;strokeColor=inherit;overflow=hidden;fillColor=none;top=0;left=0;bottom=0;right=0;pointerEvents=1;fontSize=16;" vertex="1" parent="YOCrbF04tF4Y60FLjhrO-140">
          <mxGeometry width="67" height="40" as="geometry">
            <mxRectangle width="67" height="40" as="alternateBounds" />
          </mxGeometry>
        </mxCell>
        <mxCell id="YOCrbF04tF4Y60FLjhrO-142" value="" style="shape=partialRectangle;html=1;whiteSpace=wrap;connectable=0;strokeColor=inherit;overflow=hidden;fillColor=none;top=0;left=0;bottom=0;right=0;pointerEvents=1;fontSize=16;" vertex="1" parent="YOCrbF04tF4Y60FLjhrO-140">
          <mxGeometry x="67" width="73" height="40" as="geometry">
            <mxRectangle width="73" height="40" as="alternateBounds" />
          </mxGeometry>
        </mxCell>
        <mxCell id="YOCrbF04tF4Y60FLjhrO-143" value="" style="shape=partialRectangle;html=1;whiteSpace=wrap;connectable=0;strokeColor=inherit;overflow=hidden;fillColor=none;top=0;left=0;bottom=0;right=0;pointerEvents=1;fontSize=16;" vertex="1" parent="YOCrbF04tF4Y60FLjhrO-140">
          <mxGeometry x="140" width="60" height="40" as="geometry">
            <mxRectangle width="60" height="40" as="alternateBounds" />
          </mxGeometry>
        </mxCell>
        <mxCell id="YOCrbF04tF4Y60FLjhrO-144" value="" style="shape=tableRow;horizontal=0;startSize=0;swimlaneHead=0;swimlaneBody=0;strokeColor=inherit;top=0;left=0;bottom=0;right=0;collapsible=0;dropTarget=0;fillColor=none;points=[[0,0.5],[1,0.5]];portConstraint=eastwest;fontSize=16;" vertex="1" parent="YOCrbF04tF4Y60FLjhrO-139">
          <mxGeometry y="40" width="200" height="40" as="geometry" />
        </mxCell>
        <mxCell id="YOCrbF04tF4Y60FLjhrO-145" value="" style="shape=partialRectangle;html=1;whiteSpace=wrap;connectable=0;strokeColor=inherit;overflow=hidden;fillColor=none;top=0;left=0;bottom=0;right=0;pointerEvents=1;fontSize=16;" vertex="1" parent="YOCrbF04tF4Y60FLjhrO-144">
          <mxGeometry width="67" height="40" as="geometry">
            <mxRectangle width="67" height="40" as="alternateBounds" />
          </mxGeometry>
        </mxCell>
        <mxCell id="YOCrbF04tF4Y60FLjhrO-146" value="" style="shape=partialRectangle;html=1;whiteSpace=wrap;connectable=0;strokeColor=inherit;overflow=hidden;fillColor=none;top=0;left=0;bottom=0;right=0;pointerEvents=1;fontSize=16;" vertex="1" parent="YOCrbF04tF4Y60FLjhrO-144">
          <mxGeometry x="67" width="73" height="40" as="geometry">
            <mxRectangle width="73" height="40" as="alternateBounds" />
          </mxGeometry>
        </mxCell>
        <mxCell id="YOCrbF04tF4Y60FLjhrO-147" value="" style="shape=partialRectangle;html=1;whiteSpace=wrap;connectable=0;strokeColor=inherit;overflow=hidden;fillColor=none;top=0;left=0;bottom=0;right=0;pointerEvents=1;fontSize=16;" vertex="1" parent="YOCrbF04tF4Y60FLjhrO-144">
          <mxGeometry x="140" width="60" height="40" as="geometry">
            <mxRectangle width="60" height="40" as="alternateBounds" />
          </mxGeometry>
        </mxCell>
        <mxCell id="YOCrbF04tF4Y60FLjhrO-148" value="" style="shape=tableRow;horizontal=0;startSize=0;swimlaneHead=0;swimlaneBody=0;strokeColor=inherit;top=0;left=0;bottom=0;right=0;collapsible=0;dropTarget=0;fillColor=none;points=[[0,0.5],[1,0.5]];portConstraint=eastwest;fontSize=16;" vertex="1" parent="YOCrbF04tF4Y60FLjhrO-139">
          <mxGeometry y="80" width="200" height="40" as="geometry" />
        </mxCell>
        <mxCell id="YOCrbF04tF4Y60FLjhrO-149" value="API" style="shape=partialRectangle;html=1;whiteSpace=wrap;connectable=0;strokeColor=inherit;overflow=hidden;fillColor=none;top=0;left=0;bottom=0;right=0;pointerEvents=1;fontSize=16;" vertex="1" parent="YOCrbF04tF4Y60FLjhrO-148">
          <mxGeometry width="67" height="40" as="geometry">
            <mxRectangle width="67" height="40" as="alternateBounds" />
          </mxGeometry>
        </mxCell>
        <mxCell id="YOCrbF04tF4Y60FLjhrO-150" value="" style="shape=partialRectangle;html=1;whiteSpace=wrap;connectable=0;strokeColor=inherit;overflow=hidden;fillColor=none;top=0;left=0;bottom=0;right=0;pointerEvents=1;fontSize=16;" vertex="1" parent="YOCrbF04tF4Y60FLjhrO-148">
          <mxGeometry x="67" width="73" height="40" as="geometry">
            <mxRectangle width="73" height="40" as="alternateBounds" />
          </mxGeometry>
        </mxCell>
        <mxCell id="YOCrbF04tF4Y60FLjhrO-151" value="" style="shape=partialRectangle;html=1;whiteSpace=wrap;connectable=0;strokeColor=inherit;overflow=hidden;fillColor=none;top=0;left=0;bottom=0;right=0;pointerEvents=1;fontSize=16;" vertex="1" parent="YOCrbF04tF4Y60FLjhrO-148">
          <mxGeometry x="140" width="60" height="40" as="geometry">
            <mxRectangle width="60" height="40" as="alternateBounds" />
          </mxGeometry>
        </mxCell>
        <mxCell id="YOCrbF04tF4Y60FLjhrO-152" value="" style="shape=table;startSize=0;container=1;collapsible=0;childLayout=tableLayout;fontSize=16;" vertex="1" parent="1">
          <mxGeometry x="280" y="120" width="180" height="120" as="geometry" />
        </mxCell>
        <mxCell id="YOCrbF04tF4Y60FLjhrO-153" value="" style="shape=tableRow;horizontal=0;startSize=0;swimlaneHead=0;swimlaneBody=0;strokeColor=inherit;top=0;left=0;bottom=0;right=0;collapsible=0;dropTarget=0;fillColor=none;points=[[0,0.5],[1,0.5]];portConstraint=eastwest;fontSize=16;" vertex="1" parent="YOCrbF04tF4Y60FLjhrO-152">
          <mxGeometry width="180" height="40" as="geometry" />
        </mxCell>
        <mxCell id="YOCrbF04tF4Y60FLjhrO-154" value="" style="shape=partialRectangle;html=1;whiteSpace=wrap;connectable=0;strokeColor=inherit;overflow=hidden;fillColor=none;top=0;left=0;bottom=0;right=0;pointerEvents=1;fontSize=16;" vertex="1" parent="YOCrbF04tF4Y60FLjhrO-153">
          <mxGeometry width="60" height="40" as="geometry">
            <mxRectangle width="60" height="40" as="alternateBounds" />
          </mxGeometry>
        </mxCell>
        <mxCell id="YOCrbF04tF4Y60FLjhrO-155" value="Update" style="shape=partialRectangle;html=1;whiteSpace=wrap;connectable=0;strokeColor=inherit;overflow=hidden;fillColor=none;top=0;left=0;bottom=0;right=0;pointerEvents=1;fontSize=16;" vertex="1" parent="YOCrbF04tF4Y60FLjhrO-153">
          <mxGeometry x="60" width="60" height="40" as="geometry">
            <mxRectangle width="60" height="40" as="alternateBounds" />
          </mxGeometry>
        </mxCell>
        <mxCell id="YOCrbF04tF4Y60FLjhrO-156" value="Delete" style="shape=partialRectangle;html=1;whiteSpace=wrap;connectable=0;strokeColor=inherit;overflow=hidden;fillColor=none;top=0;left=0;bottom=0;right=0;pointerEvents=1;fontSize=16;" vertex="1" parent="YOCrbF04tF4Y60FLjhrO-153">
          <mxGeometry x="120" width="60" height="40" as="geometry">
            <mxRectangle width="60" height="40" as="alternateBounds" />
          </mxGeometry>
        </mxCell>
        <mxCell id="YOCrbF04tF4Y60FLjhrO-157" value="" style="shape=tableRow;horizontal=0;startSize=0;swimlaneHead=0;swimlaneBody=0;strokeColor=inherit;top=0;left=0;bottom=0;right=0;collapsible=0;dropTarget=0;fillColor=none;points=[[0,0.5],[1,0.5]];portConstraint=eastwest;fontSize=16;" vertex="1" parent="YOCrbF04tF4Y60FLjhrO-152">
          <mxGeometry y="40" width="180" height="40" as="geometry" />
        </mxCell>
        <mxCell id="YOCrbF04tF4Y60FLjhrO-158" value="" style="shape=partialRectangle;html=1;whiteSpace=wrap;connectable=0;strokeColor=inherit;overflow=hidden;fillColor=none;top=0;left=0;bottom=0;right=0;pointerEvents=1;fontSize=16;" vertex="1" parent="YOCrbF04tF4Y60FLjhrO-157">
          <mxGeometry width="60" height="40" as="geometry">
            <mxRectangle width="60" height="40" as="alternateBounds" />
          </mxGeometry>
        </mxCell>
        <mxCell id="YOCrbF04tF4Y60FLjhrO-159" value="" style="shape=partialRectangle;html=1;whiteSpace=wrap;connectable=0;strokeColor=inherit;overflow=hidden;fillColor=none;top=0;left=0;bottom=0;right=0;pointerEvents=1;fontSize=16;" vertex="1" parent="YOCrbF04tF4Y60FLjhrO-157">
          <mxGeometry x="60" width="60" height="40" as="geometry">
            <mxRectangle width="60" height="40" as="alternateBounds" />
          </mxGeometry>
        </mxCell>
        <mxCell id="YOCrbF04tF4Y60FLjhrO-160" value="" style="shape=partialRectangle;html=1;whiteSpace=wrap;connectable=0;strokeColor=inherit;overflow=hidden;fillColor=none;top=0;left=0;bottom=0;right=0;pointerEvents=1;fontSize=16;" vertex="1" parent="YOCrbF04tF4Y60FLjhrO-157">
          <mxGeometry x="120" width="60" height="40" as="geometry">
            <mxRectangle width="60" height="40" as="alternateBounds" />
          </mxGeometry>
        </mxCell>
        <mxCell id="YOCrbF04tF4Y60FLjhrO-161" value="" style="shape=tableRow;horizontal=0;startSize=0;swimlaneHead=0;swimlaneBody=0;strokeColor=inherit;top=0;left=0;bottom=0;right=0;collapsible=0;dropTarget=0;fillColor=none;points=[[0,0.5],[1,0.5]];portConstraint=eastwest;fontSize=16;" vertex="1" parent="YOCrbF04tF4Y60FLjhrO-152">
          <mxGeometry y="80" width="180" height="40" as="geometry" />
        </mxCell>
        <mxCell id="YOCrbF04tF4Y60FLjhrO-162" value="" style="shape=partialRectangle;html=1;whiteSpace=wrap;connectable=0;strokeColor=inherit;overflow=hidden;fillColor=none;top=0;left=0;bottom=0;right=0;pointerEvents=1;fontSize=16;" vertex="1" parent="YOCrbF04tF4Y60FLjhrO-161">
          <mxGeometry width="60" height="40" as="geometry">
            <mxRectangle width="60" height="40" as="alternateBounds" />
          </mxGeometry>
        </mxCell>
        <mxCell id="YOCrbF04tF4Y60FLjhrO-163" value="" style="shape=partialRectangle;html=1;whiteSpace=wrap;connectable=0;strokeColor=inherit;overflow=hidden;fillColor=none;top=0;left=0;bottom=0;right=0;pointerEvents=1;fontSize=16;" vertex="1" parent="YOCrbF04tF4Y60FLjhrO-161">
          <mxGeometry x="60" width="60" height="40" as="geometry">
            <mxRectangle width="60" height="40" as="alternateBounds" />
          </mxGeometry>
        </mxCell>
        <mxCell id="YOCrbF04tF4Y60FLjhrO-164" value="" style="shape=partialRectangle;html=1;whiteSpace=wrap;connectable=0;strokeColor=inherit;overflow=hidden;fillColor=none;top=0;left=0;bottom=0;right=0;pointerEvents=1;fontSize=16;" vertex="1" parent="YOCrbF04tF4Y60FLjhrO-161">
          <mxGeometry x="120" width="60" height="40" as="geometry">
            <mxRectangle width="60" height="40" as="alternateBounds" />
          </mxGeometry>
        </mxCell>
        <mxCell id="YOCrbF04tF4Y60FLjhrO-203" value="" style="shape=table;startSize=0;container=1;collapsible=0;childLayout=tableLayout;fontSize=16;" vertex="1" parent="1">
          <mxGeometry x="140" y="120" width="200" height="120" as="geometry" />
        </mxCell>
        <mxCell id="YOCrbF04tF4Y60FLjhrO-204" value="" style="shape=tableRow;horizontal=0;startSize=0;swimlaneHead=0;swimlaneBody=0;strokeColor=inherit;top=0;left=0;bottom=0;right=0;collapsible=0;dropTarget=0;fillColor=none;points=[[0,0.5],[1,0.5]];portConstraint=eastwest;fontSize=16;" vertex="1" parent="YOCrbF04tF4Y60FLjhrO-203">
          <mxGeometry width="200" height="40" as="geometry" />
        </mxCell>
        <mxCell id="YOCrbF04tF4Y60FLjhrO-205" value="Entity" style="shape=partialRectangle;html=1;whiteSpace=wrap;connectable=0;strokeColor=inherit;overflow=hidden;fillColor=none;top=0;left=0;bottom=0;right=0;pointerEvents=1;fontSize=16;" vertex="1" parent="YOCrbF04tF4Y60FLjhrO-204">
          <mxGeometry width="67" height="40" as="geometry">
            <mxRectangle width="67" height="40" as="alternateBounds" />
          </mxGeometry>
        </mxCell>
        <mxCell id="YOCrbF04tF4Y60FLjhrO-206" value="Create" style="shape=partialRectangle;html=1;whiteSpace=wrap;connectable=0;strokeColor=inherit;overflow=hidden;fillColor=none;top=0;left=0;bottom=0;right=0;pointerEvents=1;fontSize=16;" vertex="1" parent="YOCrbF04tF4Y60FLjhrO-204">
          <mxGeometry x="67" width="73" height="40" as="geometry">
            <mxRectangle width="73" height="40" as="alternateBounds" />
          </mxGeometry>
        </mxCell>
        <mxCell id="YOCrbF04tF4Y60FLjhrO-207" value="Read" style="shape=partialRectangle;html=1;whiteSpace=wrap;connectable=0;strokeColor=inherit;overflow=hidden;fillColor=none;top=0;left=0;bottom=0;right=0;pointerEvents=1;fontSize=16;" vertex="1" parent="YOCrbF04tF4Y60FLjhrO-204">
          <mxGeometry x="140" width="60" height="40" as="geometry">
            <mxRectangle width="60" height="40" as="alternateBounds" />
          </mxGeometry>
        </mxCell>
        <mxCell id="YOCrbF04tF4Y60FLjhrO-208" value="" style="shape=tableRow;horizontal=0;startSize=0;swimlaneHead=0;swimlaneBody=0;strokeColor=inherit;top=0;left=0;bottom=0;right=0;collapsible=0;dropTarget=0;fillColor=none;points=[[0,0.5],[1,0.5]];portConstraint=eastwest;fontSize=16;" vertex="1" parent="YOCrbF04tF4Y60FLjhrO-203">
          <mxGeometry y="40" width="200" height="40" as="geometry" />
        </mxCell>
        <mxCell id="YOCrbF04tF4Y60FLjhrO-209" value="User" style="shape=partialRectangle;html=1;whiteSpace=wrap;connectable=0;strokeColor=inherit;overflow=hidden;fillColor=none;top=0;left=0;bottom=0;right=0;pointerEvents=1;fontSize=16;" vertex="1" parent="YOCrbF04tF4Y60FLjhrO-208">
          <mxGeometry width="67" height="40" as="geometry">
            <mxRectangle width="67" height="40" as="alternateBounds" />
          </mxGeometry>
        </mxCell>
        <mxCell id="YOCrbF04tF4Y60FLjhrO-210" value="X" style="shape=partialRectangle;html=1;whiteSpace=wrap;connectable=0;strokeColor=inherit;overflow=hidden;fillColor=none;top=0;left=0;bottom=0;right=0;pointerEvents=1;fontSize=16;" vertex="1" parent="YOCrbF04tF4Y60FLjhrO-208">
          <mxGeometry x="67" width="73" height="40" as="geometry">
            <mxRectangle width="73" height="40" as="alternateBounds" />
          </mxGeometry>
        </mxCell>
        <mxCell id="YOCrbF04tF4Y60FLjhrO-211" value="" style="shape=partialRectangle;html=1;whiteSpace=wrap;connectable=0;strokeColor=inherit;overflow=hidden;fillColor=none;top=0;left=0;bottom=0;right=0;pointerEvents=1;fontSize=16;" vertex="1" parent="YOCrbF04tF4Y60FLjhrO-208">
          <mxGeometry x="140" width="60" height="40" as="geometry">
            <mxRectangle width="60" height="40" as="alternateBounds" />
          </mxGeometry>
        </mxCell>
        <mxCell id="YOCrbF04tF4Y60FLjhrO-212" value="" style="shape=tableRow;horizontal=0;startSize=0;swimlaneHead=0;swimlaneBody=0;strokeColor=inherit;top=0;left=0;bottom=0;right=0;collapsible=0;dropTarget=0;fillColor=none;points=[[0,0.5],[1,0.5]];portConstraint=eastwest;fontSize=16;" vertex="1" parent="YOCrbF04tF4Y60FLjhrO-203">
          <mxGeometry y="80" width="200" height="40" as="geometry" />
        </mxCell>
        <mxCell id="YOCrbF04tF4Y60FLjhrO-213" value="Manager" style="shape=partialRectangle;html=1;whiteSpace=wrap;connectable=0;strokeColor=inherit;overflow=hidden;fillColor=none;top=0;left=0;bottom=0;right=0;pointerEvents=1;fontSize=16;" vertex="1" parent="YOCrbF04tF4Y60FLjhrO-212">
          <mxGeometry width="67" height="40" as="geometry">
            <mxRectangle width="67" height="40" as="alternateBounds" />
          </mxGeometry>
        </mxCell>
        <mxCell id="YOCrbF04tF4Y60FLjhrO-214" value="X" style="shape=partialRectangle;html=1;whiteSpace=wrap;connectable=0;strokeColor=inherit;overflow=hidden;fillColor=none;top=0;left=0;bottom=0;right=0;pointerEvents=1;fontSize=16;" vertex="1" parent="YOCrbF04tF4Y60FLjhrO-212">
          <mxGeometry x="67" width="73" height="40" as="geometry">
            <mxRectangle width="73" height="40" as="alternateBounds" />
          </mxGeometry>
        </mxCell>
        <mxCell id="YOCrbF04tF4Y60FLjhrO-215" value="" style="shape=partialRectangle;html=1;whiteSpace=wrap;connectable=0;strokeColor=inherit;overflow=hidden;fillColor=none;top=0;left=0;bottom=0;right=0;pointerEvents=1;fontSize=16;" vertex="1" parent="YOCrbF04tF4Y60FLjhrO-212">
          <mxGeometry x="140" width="60" height="40" as="geometry">
            <mxRectangle width="60" height="40" as="alternateBounds" />
          </mxGeometry>
        </mxCell>
        <mxCell id="YOCrbF04tF4Y60FLjhrO-216" value="" style="shape=table;startSize=0;container=1;collapsible=0;childLayout=tableLayout;fontSize=16;" vertex="1" parent="1">
          <mxGeometry x="280" y="160" width="180" height="120" as="geometry" />
        </mxCell>
        <mxCell id="YOCrbF04tF4Y60FLjhrO-217" value="" style="shape=tableRow;horizontal=0;startSize=0;swimlaneHead=0;swimlaneBody=0;strokeColor=inherit;top=0;left=0;bottom=0;right=0;collapsible=0;dropTarget=0;fillColor=none;points=[[0,0.5],[1,0.5]];portConstraint=eastwest;fontSize=16;" vertex="1" parent="YOCrbF04tF4Y60FLjhrO-216">
          <mxGeometry width="180" height="40" as="geometry" />
        </mxCell>
        <mxCell id="YOCrbF04tF4Y60FLjhrO-218" value="X" style="shape=partialRectangle;html=1;whiteSpace=wrap;connectable=0;strokeColor=inherit;overflow=hidden;fillColor=none;top=0;left=0;bottom=0;right=0;pointerEvents=1;fontSize=16;" vertex="1" parent="YOCrbF04tF4Y60FLjhrO-217">
          <mxGeometry width="60" height="40" as="geometry">
            <mxRectangle width="60" height="40" as="alternateBounds" />
          </mxGeometry>
        </mxCell>
        <mxCell id="YOCrbF04tF4Y60FLjhrO-219" value="X" style="shape=partialRectangle;html=1;whiteSpace=wrap;connectable=0;strokeColor=inherit;overflow=hidden;fillColor=none;top=0;left=0;bottom=0;right=0;pointerEvents=1;fontSize=16;" vertex="1" parent="YOCrbF04tF4Y60FLjhrO-217">
          <mxGeometry x="60" width="60" height="40" as="geometry">
            <mxRectangle width="60" height="40" as="alternateBounds" />
          </mxGeometry>
        </mxCell>
        <mxCell id="YOCrbF04tF4Y60FLjhrO-220" value="" style="shape=partialRectangle;html=1;whiteSpace=wrap;connectable=0;strokeColor=inherit;overflow=hidden;fillColor=none;top=0;left=0;bottom=0;right=0;pointerEvents=1;fontSize=16;" vertex="1" parent="YOCrbF04tF4Y60FLjhrO-217">
          <mxGeometry x="120" width="60" height="40" as="geometry">
            <mxRectangle width="60" height="40" as="alternateBounds" />
          </mxGeometry>
        </mxCell>
        <mxCell id="YOCrbF04tF4Y60FLjhrO-221" value="" style="shape=tableRow;horizontal=0;startSize=0;swimlaneHead=0;swimlaneBody=0;strokeColor=inherit;top=0;left=0;bottom=0;right=0;collapsible=0;dropTarget=0;fillColor=none;points=[[0,0.5],[1,0.5]];portConstraint=eastwest;fontSize=16;" vertex="1" parent="YOCrbF04tF4Y60FLjhrO-216">
          <mxGeometry y="40" width="180" height="40" as="geometry" />
        </mxCell>
        <mxCell id="YOCrbF04tF4Y60FLjhrO-222" value="X" style="shape=partialRectangle;html=1;whiteSpace=wrap;connectable=0;strokeColor=inherit;overflow=hidden;fillColor=none;top=0;left=0;bottom=0;right=0;pointerEvents=1;fontSize=16;" vertex="1" parent="YOCrbF04tF4Y60FLjhrO-221">
          <mxGeometry width="60" height="40" as="geometry">
            <mxRectangle width="60" height="40" as="alternateBounds" />
          </mxGeometry>
        </mxCell>
        <mxCell id="YOCrbF04tF4Y60FLjhrO-223" value="X" style="shape=partialRectangle;html=1;whiteSpace=wrap;connectable=0;strokeColor=inherit;overflow=hidden;fillColor=none;top=0;left=0;bottom=0;right=0;pointerEvents=1;fontSize=16;" vertex="1" parent="YOCrbF04tF4Y60FLjhrO-221">
          <mxGeometry x="60" width="60" height="40" as="geometry">
            <mxRectangle width="60" height="40" as="alternateBounds" />
          </mxGeometry>
        </mxCell>
        <mxCell id="YOCrbF04tF4Y60FLjhrO-224" value="X" style="shape=partialRectangle;html=1;whiteSpace=wrap;connectable=0;strokeColor=inherit;overflow=hidden;fillColor=none;top=0;left=0;bottom=0;right=0;pointerEvents=1;fontSize=16;" vertex="1" parent="YOCrbF04tF4Y60FLjhrO-221">
          <mxGeometry x="120" width="60" height="40" as="geometry">
            <mxRectangle width="60" height="40" as="alternateBounds" />
          </mxGeometry>
        </mxCell>
        <mxCell id="YOCrbF04tF4Y60FLjhrO-225" value="" style="shape=tableRow;horizontal=0;startSize=0;swimlaneHead=0;swimlaneBody=0;strokeColor=inherit;top=0;left=0;bottom=0;right=0;collapsible=0;dropTarget=0;fillColor=none;points=[[0,0.5],[1,0.5]];portConstraint=eastwest;fontSize=16;" vertex="1" parent="YOCrbF04tF4Y60FLjhrO-216">
          <mxGeometry y="80" width="180" height="40" as="geometry" />
        </mxCell>
        <mxCell id="YOCrbF04tF4Y60FLjhrO-226" value="X" style="shape=partialRectangle;html=1;whiteSpace=wrap;connectable=0;strokeColor=inherit;overflow=hidden;fillColor=none;top=0;left=0;bottom=0;right=0;pointerEvents=1;fontSize=16;" vertex="1" parent="YOCrbF04tF4Y60FLjhrO-225">
          <mxGeometry width="60" height="40" as="geometry">
            <mxRectangle width="60" height="40" as="alternateBounds" />
          </mxGeometry>
        </mxCell>
        <mxCell id="YOCrbF04tF4Y60FLjhrO-227" value="" style="shape=partialRectangle;html=1;whiteSpace=wrap;connectable=0;strokeColor=inherit;overflow=hidden;fillColor=none;top=0;left=0;bottom=0;right=0;pointerEvents=1;fontSize=16;" vertex="1" parent="YOCrbF04tF4Y60FLjhrO-225">
          <mxGeometry x="60" width="60" height="40" as="geometry">
            <mxRectangle width="60" height="40" as="alternateBounds" />
          </mxGeometry>
        </mxCell>
        <mxCell id="YOCrbF04tF4Y60FLjhrO-228" value="" style="shape=partialRectangle;html=1;whiteSpace=wrap;connectable=0;strokeColor=inherit;overflow=hidden;fillColor=none;top=0;left=0;bottom=0;right=0;pointerEvents=1;fontSize=16;" vertex="1" parent="YOCrbF04tF4Y60FLjhrO-225">
          <mxGeometry x="120" width="60" height="40" as="geometry">
            <mxRectangle width="60" height="40" as="alternateBounds" />
          </mxGeometry>
        </mxCell>
      </root>
    </mxGraphModel>
  </diagram>
</mxfile>
